<?xml version="1.0" encoding="utf-8"?>
<!-- Generator: Adobe Illustrator 21.0.2, SVG Export Plug-In . SVG Version: 6.00 Build 0)  -->
<svg version="1.1" id="Capa_1" xmlns="http://www.w3.org/2000/svg" xmlns:xlink="http://www.w3.org/1999/xlink" x="0px" y="0px"
	 viewBox="0 0 1000 1000" style="enable-background:new 0 0 1000 1000;" xml:space="preserve">
<style type="text/css">
	.st0{fill:#020203;}
	.st1{fill:none;}
</style>
<g>
	<title>Layer 1</title>
	<g id="layer1_1_">
		<path id="path2453_1_" class="st0" d="M503.4,744.1c-2.8-0.6-4.1-1.7-4.1-3.4c0-1-0.6-1.7-1.8-2.3c-1.5-0.8-1.8-1.3-1.8-3.1
			c0-1.7-0.4-2.5-2.1-4c-2.5-2.2-2.6-3.5-0.8-8.7c1.1-3.4,1.2-3.8,0.3-4.8c-0.8-0.9-0.9-2.3-0.4-10.3l0.5-9.3l3.4-8.4l3.4-8.4
			l0.2-12.9c0.1-8.1,0.5-14.7,1.1-17.7c1.2-6.4,0.8-34.9-0.5-39.6c-1.6-5.6-3.3-17.2-3.6-24.2c-0.2-3.8-0.5-7.3-0.6-7.8
			c-0.5-1.6-5.5,8.3-8,15.9c-3.3,10.1-4.6,14.8-6,21.5c-0.7,3.2-1.6,6.6-2.1,7.6c-0.5,1-0.9,2.8-0.9,4c0,1.3-0.4,4-0.9,6.2
			c-1.2,5.3-1.1,9.1,0.4,20.5c0.7,5.4,1.5,14.7,1.8,20.8c0.3,6.1,0.9,15.1,1.3,20.1c0.7,8.2,0.9,9.2,2.5,12
			c3.1,5.2,3.9,8.3,3.8,15.6c0,3.6-0.2,8.2-0.4,10.2l-0.4,3.6l-4.8,0.8c-3.6,0.6-5.6,0.7-8.3,0.2c-3.5-0.6-3.6-0.6-6.3,1.4
			c-1.5,1.1-3.4,2.2-4.1,2.4c-2.6,0.8-15.4,0.4-20.2-0.6c-6.1-1.2-6.8-1.9-5.2-4.5c1.6-2.6,2.7-3.3,7.6-4.7c4.9-1.5,9.2-4,11-6.6
			c1.2-1.7,1.2-2,0.4-3.3c-2.1-3.2-3.7-20.9-4.3-49l-0.4-17.7l-2.7-12.3c-1.5-6.8-3.1-13.8-3.6-15.6c-0.7-2.9-0.7-4.1,0-9.6
			c1.2-8.6,2.7-22.9,3.3-31.1l0.5-6.9l-3.5-4.6c-3.5-4.6-3.5-4.6-3.9-9.9c-0.4-4.4-0.2-6.1,0.8-10.1c1.4-5.3,1.1-8.2-1-11
			c-2.9-3.9-1.7-46.6,1.8-63.9c0.9-4.6,1.1-7.2,0.8-11.1c-0.2-2.8-0.1-7,0.3-9.3c0.8-5.4,3.4-25.4,4.2-32.3c0.4-3.6,1.1-6.2,2.1-8.1
			c0.8-1.5,1.9-3.8,2.4-5c0.6-1.4,1.3-2.2,2-2.2c0.6,0,3.9-1.2,7.4-2.7c3.5-1.5,8.6-3.4,11.5-4.2c8.5-2.4,10.9-3.7,13.7-7.6
			c2.3-3.2,2.3-5.2-0.1-6.9c-1.1-0.8-1.8-1.9-1.8-2.7c0-0.8-0.7-2-1.5-2.8c-2.1-1.9-2.9-5-2.5-8.8c0.3-2.7,0-4.2-1.7-9.5
			c-2.4-7.1-2.4-8.7,0.1-13.5c1.9-3.8,7-9.2,10-10.7c1.9-0.9,3.7-1.2,7.4-1.2c11.3,0,19.2,5.2,23,15.4c1.1,2.8,1.2,4.1,0.9,7.3
			c-0.5,4.5-0.5,4.6,0,9.3c0.3,3.4,0.2,3.8-1.8,7.2c-1.4,2.3-2.1,4-1.9,4.9c0.2,0.9-0.2,1.7-1.2,2.7c-1.8,1.7-1.9,4.2-0.3,6.9l1.2,2
			l-1.2-0.3c-1-0.3-1.2,0-1.2,1.1c0,1.1-0.8,1.9-3.3,3.5c-1.8,1.1-4.6,2.8-6.1,3.8c-2.6,1.6-2.7,1.8-1.6,2.5c2.9,2,2.9,2,0.3,4.8
			c-2.9,3.1-3,4.3-1.2,10.6c1.1,3.7,1.3,6.4,1.5,19c0.1,8.1,0.1,22.9-0.2,32.9l-0.5,18.3l-5,3.9l-5,3.9l-4.4-4.8
			c-3.9-4.3-4.4-5-4.4-7.2c0-3.1,2.2-29.8,3.3-41c1.1-10.6,4.7-27.2,6.4-29.6c1.7-2.4,1.6-4.8-0.4-6.9l-1.7-1.7l2.3-1.6
			c1.3-0.9,2.6-1.6,3-1.6c1.8,0,1-1.3-3.7-6l-5-5l-0.9,2.2c-0.6,1.3-0.9,4.2-1,7.2c0,2.7-0.3,6.4-0.6,8.3
			c-0.3,1.8-0.8,16.8-1.1,33.3c-0.6,32.2-1.1,40-3.4,53.9c-2,12.1-2,11.5,1.3,12c6.9,1,31.8-1.1,33.6-2.9c0.2-0.2-0.6-4.9-1.9-10.4
			c-3.3-14.9-3.7-19.7-2.8-42c0.7-17.4,2.8-42.9,4.3-51c0.3-1.8,0.6-4.4,0.6-5.8v-2.6l2.4,2.6c1.5,1.6,4,3.4,6.4,4.5
			c2.2,1,8.5,4.1,14,6.8c9.6,4.7,10,5,10.7,7.2c0.4,1.2,0.9,2.4,1.2,2.6c0.5,0.3,2.2,5.5,4,12.2c0.5,1.9,0.8,6.3,0.9,10.8
			c0,4.2,0.3,9.6,0.6,12.1c0.3,2.5,0.9,8.3,1.2,12.9c0.3,4.6,0.8,11.4,1.2,15c1.3,14,1.3,18.1,0.3,30.3c-0.6,6.8-1.1,16.3-1.3,21.3
			c-0.2,8.1-0.4,9.3-1.7,12c-0.8,1.6-1.5,3.5-1.5,4.1s-0.6,1.4-1.4,1.7c-1.1,0.5-1.5,1.3-1.8,3.7c-0.2,1.7-0.4,4-0.4,5.2
			c0,2.9-3.8,10.6-5.5,11.3c-0.8,0.3-3.5,1-6.1,1.5c-2.6,0.5-4.8,1-4.9,1.1c-0.1,0.1-0.6,2.8-1.1,6.1c-1,6.2-3.5,15.9-4.6,17.9
			c-0.3,0.6-1.1,5.6-1.8,11.1c-1,8.7-1.2,13.8-1.1,39c0.1,39.8-1,58.9-3.7,65.4c-1.8,4.4-5.2,10.1-7,11.9c-1,1-1.3,1.7-0.9,2.2
			c0.3,0.4,1.3,1.9,2.3,3.3c1,1.4,2.3,3.4,2.9,4.3c2.6,3.8-0.4,5.7-10.1,6.1C508.5,744.4,504.6,744.3,503.4,744.1z M453.7,567.1
			c0.9-0.9,1-9.5,0.1-9.5c-1,0-1.8,2.9-1.8,6.6C452,567.8,452.3,568.4,453.7,567.1z M540.3,561.9c1.3-2.5,1.1-4.2-0.6-6.3l-1.5-1.8
			l0,4.9C538.3,563.9,538.8,564.8,540.3,561.9z M543.1,508.8c-0.9-14.4-1.6-22.3-2.4-25.2c-0.3-1.3-0.6-3.7-0.6-5.4
			c0-2.9-0.8-5.1-1.5-4.4c-0.2,0.2-0.4,4.1-0.5,8.7c-0.1,6.9,0.1,9.8,1.5,16.7c0.9,4.6,1.9,9.3,2.2,10.5c0.4,1.2,0.6,6.4,0.6,11.8
			c0,5.3,0.2,11,0.4,12.6C543.7,539,543.8,520.8,543.1,508.8z"/>
	</g>
</g>
<g>
	<path class="st0" d="M275.7,156.6c0.2,12.2-2.2,22.2-7.1,30c-4.9,7.8-11,13.8-18.1,18.2c-7.1,4.4-14.6,7.4-22.4,9
		c-7.9,1.7-14.5,2.5-19.9,2.5h-45.4v-189h53.9c5.6,0,11,1.1,16.2,3.3c5.1,2.2,9.6,5.2,13.4,9c3.8,3.8,6.8,8.3,9,13.4
		c2.2,5.1,3.3,10.5,3.3,16.2c0,6.2-0.9,11.6-2.6,16.3c-1.7,4.7-3.8,8.6-6.3,11.8c-2.4,3.2-5,5.7-7.9,7.4c-2.8,1.7-5.3,2.7-7.4,2.9
		c7.8,1.6,14.7,4.3,20.7,8.2c5,3.3,9.7,8.2,14,14.7C273.2,137.1,275.5,145.8,275.7,156.6z M229.4,74.5c0-6.8-2.3-12.5-7-17.2
		s-10.4-7-17.2-7h-14V99h14c6.8,0,12.5-2.4,17.2-7.1C227,87.1,229.4,81.3,229.4,74.5z M245.7,157.5c0-4.9-0.9-9.5-2.8-13.8
		c-1.8-4.4-4.4-8.2-7.6-11.5c-3.2-3.3-7-5.9-11.4-7.7c-4.4-1.8-9-2.8-13.8-2.8h-18.9v71.9h18.9c4.9,0,9.5-1,13.8-2.9
		c4.4-1.9,8.2-4.5,11.4-7.7s5.7-7,7.6-11.4C244.8,167.3,245.7,162.5,245.7,157.5z"/>
	<path class="st0" d="M405.5,24.1c3.5,0,7.1,0.3,10.8,0.9c3.7,0.6,7.2,1.3,10.5,2c3.3,0.8,6.3,1.6,9,2.5c2.7,0.9,4.8,1.7,6.1,2.5
		v31.2c-2.3-1.9-5.1-3.6-8.2-5.1c-3.1-1.5-6.3-2.7-9.6-3.8c-3.3-1.1-6.6-1.9-9.9-2.5c-3.3-0.6-6.3-0.9-9-0.9
		c-9.1,0-17.9,1.7-26.2,5.1c-8.3,3.4-15.7,8.3-22,14.6c-6.3,6.3-11.3,13.8-15,22.4c-3.7,8.6-5.5,18.2-5.5,28.7
		c0,10.9,1.9,20.7,5.8,29.4c3.9,8.7,9,16.2,15.4,22.3c6.4,6.1,13.6,10.8,21.7,14.1c8.1,3.3,16.2,4.9,24.3,4.9c8.5,0,15.9-1,22.1-3.1
		c6.2-2,12.8-5.4,19.8-10v31.4c-5.6,3.1-12.3,5.2-20.1,6.4c-7.8,1.2-15.9,1.7-24.5,1.7c-11.5,0-22.9-2.2-34.4-6.7
		c-11.5-4.5-21.7-10.9-30.7-19.2c-9-8.3-16.4-18.5-22-30.6c-5.6-12-8.4-25.7-8.4-41.1c0-13.8,2.5-26.6,7.4-38.4
		c4.9-11.8,11.8-22.1,20.7-30.9c8.8-8.7,19.4-15.6,31.6-20.5C377.6,26.6,391,24.1,405.5,24.1z"/>
	<path class="st0" d="M670.5,121.7c0,13.4-2.5,26-7.6,37.8c-5.1,11.8-12,22.2-20.8,31c-8.8,8.8-19.2,15.8-31,20.8
		c-11.8,5-24.5,7.6-37.8,7.6s-26-2.5-37.8-7.6c-11.8-5-22.1-12-30.9-20.8c-8.7-8.8-15.7-19.2-20.8-31c-5.1-11.8-7.7-24.5-7.7-37.8
		c0-13.4,2.6-26,7.7-37.8c5.1-11.8,12.1-22.2,20.8-31c8.7-8.8,19-15.8,30.9-21c11.8-5.1,24.5-7.7,37.8-7.7s26,2.6,37.8,7.7
		c11.8,5.1,22.2,12.1,31,21c8.8,8.8,15.8,19.2,20.8,31C667.9,95.7,670.5,108.3,670.5,121.7z M639.6,121.4c0-10.5-1.7-20-5.2-28.7
		c-3.5-8.6-8.3-16.1-14.3-22.4c-6-6.3-13.1-11.2-21.3-14.7c-8.2-3.5-16.8-5.2-25.9-5.2c-9.1,0-17.7,1.7-25.8,5.2
		c-8.1,3.5-15.1,8.4-21.1,14.7c-6,6.3-10.8,13.8-14.3,22.4c-3.5,8.6-5.2,18.2-5.2,28.7c0,10.9,2,20.7,6,29.4
		c4,8.7,9.2,16.2,15.6,22.4c6.4,6.2,13.7,11,21.8,14.4c8.2,3.4,16.4,5.1,24.7,5.1c8.2,0,16.2-1.7,24-5.1c7.9-3.4,14.8-8.2,20.8-14.4
		c6-6.2,10.9-13.7,14.6-22.4C637.8,142.1,639.6,132.3,639.6,121.4z"/>
	<path class="st0" d="M743.5,216.3h-27.1V20.9l93.8,119.4V27.1h27.4v195.4l-94-120.8V216.3z"/>
</g>
<g>
	<path class="st1" d="M500.9,852.6c26.7-26.2,52.8-51,78-76.7c95.8-97.9,149.2-215,159.4-351.8c1.1-14.5-1.5-22.7-17.2-28.7
		c-58.6-22.5-111.5-55.2-159.1-96.1c-21.5-18.5-41.4-38.8-63.4-59.5c-1.9,2.4-3.8,5.4-6.2,8c-59.2,65.5-130,114.4-211.7,147.3
		c-15.1,6.1-18.7,13.6-17.9,28.4c3.6,73.2,23.9,141.6,55.5,207.2c33.5,69.7,81.7,127.8,138.1,179.9
		C470.9,824,485.2,837.8,500.9,852.6z M777,557.2c-15.9,32.7-30.1,67.2-48.8,99.1C678.9,740.8,608.9,806.2,531,863.8
		c-30.2,22.3-30.2,22.3-61,0c-1.1-0.8-2.2-1.5-3.3-2.3C385,800.5,312.6,730.8,263.3,640.2c-15.1-27.8-26.6-57.6-39.7-86.5
		C267.5,701,369,803.4,489.7,892.5c-16.5,10.7-31.2,20.1-45.8,29.5c0.5,1.6,1,3.2,1.4,4.8c5.8-0.9,12.4-0.3,17.3-2.9
		c12.8-7,25-21.8,37.2-21.6c12.9,0.2,25.3,14.8,38.6,21.8c4.8,2.5,11.5,1.3,17.4,1.8c0.1-1.4,0.2-2.9,0.4-4.3
		c-14.6-9.5-29.2-19-44.9-29.2C631.8,803.6,732.1,701.8,777,557.2z"/>
	<path d="M500.9,852.6c-15.7-14.8-30-28.6-44.6-42.1c-56.4-52-104.6-110.2-138.1-179.9c-31.5-65.6-51.9-134.1-55.5-207.2
		c-0.7-14.8,2.8-22.3,17.9-28.4c81.6-32.8,152.5-81.8,211.7-147.3c2.4-2.6,4.3-5.6,6.2-8c21.9,20.7,41.9,41,63.4,59.5
		c47.6,40.9,100.5,73.6,159.1,96.1c15.7,6,18.2,14.2,17.2,28.7c-10.2,136.8-63.5,254-159.4,351.8
		C553.7,801.6,527.6,826.4,500.9,852.6z M501,814c58.9-54.5,114.3-110.5,150.6-182.7C683,569,704.5,504.2,710,434.4
		c0.7-9.1-1.5-14.1-10.7-18.1c-72.4-30.9-136.5-74.3-192.4-129.8c-2.1-2-4.6-3.6-6.9-5.3c-1.8,1.3-2.9,2-3.9,3
		c-56.8,57.2-122.4,101.4-196.6,132.9c-9.6,4.1-9.6,10.1-8.8,17.9C306.1,591.3,382.4,713.8,501,814z"/>
	<path d="M777,557.2c-44.9,144.6-145.2,246.4-265.7,335.1c15.7,10.2,30.3,19.7,44.9,29.2c-0.1,1.4-0.2,2.9-0.4,4.3
		c-5.8-0.5-12.6,0.7-17.4-1.8c-13.3-7-25.6-21.5-38.6-21.8c-12.2-0.2-24.4,14.6-37.2,21.6c-4.8,2.6-11.5,2-17.3,2.9
		c-0.5-1.6-1-3.2-1.4-4.8c14.6-9.4,29.2-18.8,45.8-29.5C369,803.4,267.5,701,223.6,553.8c13.1,28.9,24.6,58.7,39.7,86.5
		c49.2,90.6,121.6,160.3,203.4,221.2c1.1,0.8,2.2,1.5,3.3,2.3c30.8,22.3,30.8,22.3,61,0c77.9-57.5,147.9-123,197.2-207.4
		C746.8,624.4,761,589.9,777,557.2z"/>
	<path class="st1" d="M501,814C382.4,713.8,306.1,591.3,290.8,435c-0.8-7.8-0.8-13.8,8.8-17.9c74.1-31.5,139.7-75.7,196.6-132.9
		c0.9-0.9,2.1-1.6,3.9-3c2.2,1.7,4.8,3.2,6.9,5.3c55.9,55.5,120,98.8,192.4,129.8c9.2,4,11.5,9,10.7,18.1
		c-5.6,69.8-27.1,134.6-58.4,196.8C615.3,703.5,559.9,759.5,501,814z"/>
</g>
<g>
	<path class="st0" d="M227.4,973.4c0,2.4-0.4,4.3-1.4,5.8c-1,1.5-2.1,2.7-3.5,3.5c-1.4,0.8-2.8,1.4-4.3,1.7
		c-1.5,0.3-2.8,0.5-3.8,0.5h-8.8v-36.4H216c1.1,0,2.1,0.2,3.1,0.6c1,0.4,1.9,1,2.6,1.7c0.7,0.7,1.3,1.6,1.7,2.6c0.4,1,0.6,2,0.6,3.1
		c0,1.2-0.2,2.2-0.5,3.1c-0.3,0.9-0.7,1.7-1.2,2.3c-0.5,0.6-1,1.1-1.5,1.4c-0.5,0.3-1,0.5-1.4,0.6c1.5,0.3,2.8,0.8,4,1.6
		c1,0.6,1.9,1.6,2.7,2.8C226.9,969.6,227.4,971.3,227.4,973.4z M218.5,957.6c0-1.3-0.4-2.4-1.3-3.3c-0.9-0.9-2-1.3-3.3-1.3h-2.7v9.4
		h2.7c1.3,0,2.4-0.5,3.3-1.4C218,960,218.5,958.9,218.5,957.6z M221.6,973.5c0-0.9-0.2-1.8-0.5-2.7c-0.4-0.8-0.8-1.6-1.5-2.2
		c-0.6-0.6-1.3-1.1-2.2-1.5c-0.8-0.4-1.7-0.5-2.7-0.5h-3.6v13.9h3.6c0.9,0,1.8-0.2,2.7-0.6c0.8-0.4,1.6-0.9,2.2-1.5
		c0.6-0.6,1.1-1.3,1.5-2.2C221.5,975.4,221.6,974.5,221.6,973.5z"/>
	<path class="st0" d="M241.7,948.4v27.2c0,1,0.2,1.9,0.7,2.6c0.5,0.7,1.1,1.2,1.8,1.5c0.7,0.3,1.5,0.5,2.3,0.5s1.6-0.2,2.3-0.5
		c0.7-0.4,1.3-0.9,1.8-1.5c0.5-0.7,0.7-1.5,0.7-2.5v-27.2h5.5v27.1c0,2.2-0.5,4-1.5,5.5c-1,1.5-2.3,2.6-3.9,3.3
		c-1.6,0.7-3.2,1.1-5,1.1c-1.8,0-3.5-0.4-5-1.1c-1.5-0.7-2.8-1.8-3.8-3.3c-1-1.5-1.5-3.3-1.5-5.5v-27.1H241.7z"/>
	<path class="st0" d="M278,961.9c1.3,0.5,2.4,1.1,3.5,1.8c1.1,0.7,2,1.5,2.8,2.5c0.8,1,1.4,2,1.8,3.3s0.6,2.6,0.6,4.2
		c0,1.5-0.3,3-1,4.4s-1.5,2.7-2.6,3.7c-1.1,1.1-2.3,1.9-3.7,2.6c-1.4,0.6-2.9,1-4.5,1c-0.9,0-1.7-0.1-2.6-0.2
		c-0.9-0.1-1.7-0.3-2.4-0.5c-0.7-0.2-1.4-0.5-2-0.7c-0.6-0.3-1.1-0.5-1.4-0.7v-7c0.3,0.4,0.7,0.8,1.2,1.3c0.6,0.4,1.2,0.8,1.9,1.2
		c0.7,0.4,1.5,0.7,2.3,1c0.8,0.2,1.6,0.4,2.4,0.4c1.8,0,3.2-0.5,4.3-1.6c1.1-1.1,1.8-2.4,2-4c0.3-1.8-0.2-3.3-1.3-4.5
		c-1.1-1.1-2.6-2.1-4.5-3c-1-0.4-1.9-1-2.8-1.5c-0.9-0.6-1.7-1.2-2.4-2c-0.7-0.8-1.3-1.7-1.7-2.8c-0.4-1-0.6-2.3-0.6-3.6
		c0-1.6,0.3-2.9,0.9-4.1c0.6-1.2,1.4-2.1,2.3-2.8c0.9-0.7,1.9-1.3,3-1.7c1.1-0.4,2.1-0.6,3-0.6c0.9,0,1.7,0,2.4,0.1
		c0.8,0.1,1.5,0.2,2,0.3c0.7,0.2,1.3,0.3,2,0.5v6.7c-0.4-0.5-0.9-0.9-1.5-1.3c-0.5-0.3-1.1-0.6-1.9-0.9c-0.7-0.3-1.6-0.4-2.6-0.4
		c-0.7,0-1.4,0.1-1.9,0.4c-0.5,0.3-1,0.6-1.3,1c-0.3,0.4-0.6,0.8-0.7,1.3c-0.2,0.5-0.2,0.9-0.2,1.3c0,0.9,0.3,1.6,0.8,2.3
		c0.5,0.7,1.1,1.2,1.7,1.6C276.2,961.2,277,961.6,278,961.9z"/>
	<path class="st0" d="M296.5,948.4h5.7v36.5h-5.7V948.4z"/>
	<path class="st0" d="M319.2,984.9H314v-37.6l18.1,23v-21.8h5.3v37.6l-18.1-23.3V984.9z"/>
	<path class="st0" d="M349.1,948.4h15.8v4.8h-10.2V968h10.2v4.9h-10.2v7.1h10.9v4.9h-16.5V948.4z"/>
	<path class="st0" d="M385.5,961.9c1.3,0.5,2.4,1.1,3.5,1.8c1.1,0.7,2,1.5,2.8,2.5c0.8,1,1.4,2,1.8,3.3s0.6,2.6,0.6,4.2
		c0,1.5-0.3,3-1,4.4s-1.5,2.7-2.6,3.7c-1.1,1.1-2.3,1.9-3.7,2.6c-1.4,0.6-2.9,1-4.5,1c-0.9,0-1.7-0.1-2.6-0.2s-1.7-0.3-2.4-0.5
		c-0.7-0.2-1.4-0.5-2-0.7c-0.6-0.3-1.1-0.5-1.4-0.7v-7c0.3,0.4,0.7,0.8,1.2,1.3c0.6,0.4,1.2,0.8,1.9,1.2c0.7,0.4,1.5,0.7,2.3,1
		c0.8,0.2,1.6,0.4,2.4,0.4c1.8,0,3.2-0.5,4.3-1.6c1.1-1.1,1.8-2.4,2-4c0.3-1.8-0.2-3.3-1.3-4.5c-1.1-1.1-2.6-2.1-4.5-3
		c-1-0.4-1.9-1-2.8-1.5c-0.9-0.6-1.7-1.2-2.4-2c-0.7-0.8-1.3-1.7-1.7-2.8c-0.4-1-0.6-2.3-0.6-3.6c0-1.6,0.3-2.9,0.9-4.1
		c0.6-1.2,1.4-2.1,2.3-2.8c0.9-0.7,1.9-1.3,3-1.7c1.1-0.4,2.1-0.6,3-0.6c0.9,0,1.7,0,2.4,0.1c0.8,0.1,1.5,0.2,2,0.3
		c0.7,0.2,1.3,0.3,2,0.5v6.7c-0.4-0.5-0.9-0.9-1.5-1.3c-0.5-0.3-1.1-0.6-1.9-0.9c-0.7-0.3-1.6-0.4-2.6-0.4c-0.7,0-1.4,0.1-1.9,0.4
		c-0.5,0.3-1,0.6-1.3,1c-0.3,0.4-0.6,0.8-0.7,1.3c-0.2,0.5-0.2,0.9-0.2,1.3c0,0.9,0.3,1.6,0.8,2.3c0.5,0.7,1.1,1.2,1.7,1.6
		C383.7,961.2,384.6,961.6,385.5,961.9z"/>
	<path class="st0" d="M413.6,961.9c1.3,0.5,2.4,1.1,3.5,1.8c1.1,0.7,2,1.5,2.8,2.5c0.8,1,1.4,2,1.8,3.3c0.4,1.2,0.6,2.6,0.6,4.2
		c0,1.5-0.3,3-1,4.4s-1.5,2.7-2.6,3.7c-1.1,1.1-2.3,1.9-3.7,2.6c-1.4,0.6-2.9,1-4.5,1c-0.9,0-1.7-0.1-2.6-0.2s-1.7-0.3-2.4-0.5
		c-0.7-0.2-1.4-0.5-2-0.7c-0.6-0.3-1.1-0.5-1.4-0.7v-7c0.3,0.4,0.7,0.8,1.2,1.3c0.6,0.4,1.2,0.8,1.9,1.2c0.7,0.4,1.5,0.7,2.3,1
		c0.8,0.2,1.6,0.4,2.4,0.4c1.8,0,3.2-0.5,4.3-1.6c1.1-1.1,1.8-2.4,2-4c0.3-1.8-0.2-3.3-1.3-4.5c-1.1-1.1-2.6-2.1-4.5-3
		c-1-0.4-1.9-1-2.8-1.5c-0.9-0.6-1.7-1.2-2.4-2c-0.7-0.8-1.3-1.7-1.7-2.8c-0.4-1-0.6-2.3-0.6-3.6c0-1.6,0.3-2.9,0.9-4.1
		c0.6-1.2,1.4-2.1,2.3-2.8c0.9-0.7,1.9-1.3,3-1.7c1.1-0.4,2.1-0.6,3-0.6c0.9,0,1.7,0,2.4,0.1c0.8,0.1,1.5,0.2,2,0.3
		c0.7,0.2,1.3,0.3,2,0.5v6.7c-0.4-0.5-0.9-0.9-1.5-1.3c-0.5-0.3-1.1-0.6-1.9-0.9c-0.7-0.3-1.6-0.4-2.6-0.4c-0.7,0-1.4,0.1-1.9,0.4
		c-0.5,0.3-1,0.6-1.3,1c-0.3,0.4-0.6,0.8-0.7,1.3c-0.2,0.5-0.2,0.9-0.2,1.3c0,0.9,0.3,1.6,0.8,2.3c0.5,0.7,1.1,1.2,1.7,1.6
		C411.8,961.2,412.6,961.6,413.6,961.9z"/>
	<path class="st0" d="M476.4,947.9c0.7,0,1.4,0.1,2.1,0.2c0.7,0.1,1.4,0.2,2,0.4c0.6,0.2,1.2,0.3,1.7,0.5c0.5,0.2,0.9,0.3,1.2,0.5v6
		c-0.4-0.4-1-0.7-1.6-1c-0.6-0.3-1.2-0.5-1.8-0.7c-0.6-0.2-1.3-0.4-1.9-0.5c-0.6-0.1-1.2-0.2-1.7-0.2c-1.8,0-3.4,0.3-5,1
		c-1.6,0.7-3,1.6-4.2,2.8c-1.2,1.2-2.2,2.7-2.9,4.3c-0.7,1.7-1.1,3.5-1.1,5.5c0,2.1,0.4,4,1.1,5.7c0.7,1.7,1.7,3.1,3,4.3
		c1.2,1.2,2.6,2.1,4.2,2.7c1.6,0.6,3.1,1,4.7,1c1.6,0,3.1-0.2,4.3-0.6c1.2-0.4,2.5-1,3.8-1.9v6.1c-1.1,0.6-2.4,1-3.9,1.2
		c-1.5,0.2-3.1,0.3-4.7,0.3c-2.2,0-4.4-0.4-6.6-1.3c-2.2-0.9-4.2-2.1-5.9-3.7c-1.7-1.6-3.2-3.6-4.2-5.9s-1.6-5-1.6-7.9
		c0-2.7,0.5-5.1,1.4-7.4c1-2.3,2.3-4.3,4-5.9c1.7-1.7,3.7-3,6.1-4C471,948.3,473.5,947.9,476.4,947.9z"/>
	<path class="st0" d="M527.4,966.6c0,2.6-0.5,5-1.5,7.3c-1,2.3-2.3,4.3-4,6c-1.7,1.7-3.7,3-6,4c-2.3,1-4.7,1.5-7.3,1.5
		c-2.6,0-5-0.5-7.3-1.5c-2.3-1-4.3-2.3-5.9-4c-1.7-1.7-3-3.7-4-6c-1-2.3-1.5-4.7-1.5-7.3s0.5-5,1.5-7.3c1-2.3,2.3-4.3,4-6
		c1.7-1.7,3.7-3,5.9-4c2.3-1,4.7-1.5,7.3-1.5c2.6,0,5,0.5,7.3,1.5c2.3,1,4.3,2.3,6,4c1.7,1.7,3,3.7,4,6
		C526.9,961.6,527.4,964.1,527.4,966.6z M521.4,966.6c0-2-0.3-3.9-1-5.5c-0.7-1.7-1.6-3.1-2.7-4.3c-1.2-1.2-2.5-2.2-4.1-2.8
		c-1.6-0.7-3.2-1-5-1c-1.8,0-3.4,0.3-5,1c-1.6,0.7-2.9,1.6-4.1,2.8c-1.2,1.2-2.1,2.7-2.7,4.3c-0.7,1.7-1,3.5-1,5.5
		c0,2.1,0.4,4,1.2,5.7c0.8,1.7,1.8,3.1,3,4.3c1.2,1.2,2.6,2.1,4.2,2.8c1.6,0.7,3.2,1,4.8,1c1.6,0,3.1-0.3,4.6-1
		c1.5-0.7,2.9-1.6,4-2.8c1.2-1.2,2.1-2.6,2.8-4.3C521.1,970.6,521.4,968.7,521.4,966.6z"/>
	<path class="st0" d="M541.5,984.9h-5.2v-37.6l18.1,23v-21.8h5.3v37.6l-18.1-23.3V984.9z"/>
	<path class="st0" d="M581,961.9c1.3,0.5,2.4,1.1,3.5,1.8c1.1,0.7,2,1.5,2.8,2.5c0.8,1,1.4,2,1.8,3.3c0.4,1.2,0.6,2.6,0.6,4.2
		c0,1.5-0.3,3-1,4.4s-1.5,2.7-2.6,3.7c-1.1,1.1-2.3,1.9-3.7,2.6c-1.4,0.6-2.9,1-4.5,1c-0.9,0-1.7-0.1-2.6-0.2
		c-0.9-0.1-1.7-0.3-2.4-0.5c-0.7-0.2-1.4-0.5-2-0.7c-0.6-0.3-1.1-0.5-1.4-0.7v-7c0.3,0.4,0.7,0.8,1.2,1.3c0.6,0.4,1.2,0.8,1.9,1.2
		c0.7,0.4,1.5,0.7,2.3,1c0.8,0.2,1.6,0.4,2.4,0.4c1.8,0,3.2-0.5,4.3-1.6c1.1-1.1,1.8-2.4,2-4c0.3-1.8-0.2-3.3-1.3-4.5
		c-1.1-1.1-2.6-2.1-4.5-3c-1-0.4-1.9-1-2.8-1.5c-0.9-0.6-1.7-1.2-2.4-2c-0.7-0.8-1.3-1.7-1.7-2.8c-0.4-1-0.6-2.3-0.6-3.6
		c0-1.6,0.3-2.9,0.9-4.1c0.6-1.2,1.4-2.1,2.3-2.8c0.9-0.7,1.9-1.3,3-1.7c1.1-0.4,2.1-0.6,3-0.6c0.9,0,1.7,0,2.4,0.1
		c0.8,0.1,1.5,0.2,2,0.3c0.7,0.2,1.3,0.3,2,0.5v6.7c-0.4-0.5-0.9-0.9-1.5-1.3c-0.5-0.3-1.1-0.6-1.9-0.9c-0.7-0.3-1.6-0.4-2.6-0.4
		c-0.7,0-1.4,0.1-1.9,0.4c-0.5,0.3-1,0.6-1.3,1c-0.3,0.4-0.6,0.8-0.7,1.3c-0.2,0.5-0.2,0.9-0.2,1.3c0,0.9,0.3,1.6,0.8,2.3
		c0.5,0.7,1.1,1.2,1.7,1.6C579.1,961.2,580,961.6,581,961.9z"/>
	<path class="st0" d="M605,948.4v27.2c0,1,0.2,1.9,0.7,2.6c0.5,0.7,1.1,1.2,1.8,1.5c0.7,0.3,1.5,0.5,2.3,0.5c0.8,0,1.6-0.2,2.3-0.5
		c0.7-0.4,1.3-0.9,1.8-1.5c0.5-0.7,0.7-1.5,0.7-2.5v-27.2h5.5v27.1c0,2.2-0.5,4-1.5,5.5c-1,1.5-2.3,2.6-3.9,3.3
		c-1.6,0.7-3.2,1.1-5,1.1c-1.8,0-3.5-0.4-5-1.1c-1.5-0.7-2.8-1.8-3.8-3.3c-1-1.5-1.5-3.3-1.5-5.5v-27.1H605z"/>
	<path class="st0" d="M637.4,980h9.8v4.9h-15.5v-36.5h5.6L637.4,980z"/>
	<path class="st0" d="M663.4,953.2v31.7h-5.6v-31.7h-6.1v-4.8h17.7v4.8H663.4z"/>
	<path class="st0" d="M698.5,984.9h-6.1l-1.3-5.9h-8.9l-1.3,5.9h-6.1l9.2-36.5h5.3L698.5,984.9z M686.5,957l-3.6,17.2h7.2L686.5,957
		z"/>
	<path class="st0" d="M712.3,984.9h-5.2v-37.6l18.1,23v-21.8h5.3v37.6l-18.1-23.3V984.9z"/>
	<path class="st0" d="M758.5,947.9c0.7,0,1.4,0.1,2.1,0.2c0.7,0.1,1.4,0.2,2,0.4c0.6,0.2,1.2,0.3,1.7,0.5c0.5,0.2,0.9,0.3,1.2,0.5v6
		c-0.4-0.4-1-0.7-1.6-1c-0.6-0.3-1.2-0.5-1.8-0.7c-0.6-0.2-1.3-0.4-1.9-0.5c-0.6-0.1-1.2-0.2-1.7-0.2c-1.8,0-3.4,0.3-5,1
		c-1.6,0.7-3,1.6-4.2,2.8c-1.2,1.2-2.2,2.7-2.9,4.3c-0.7,1.7-1.1,3.5-1.1,5.5c0,2.1,0.4,4,1.1,5.7s1.7,3.1,3,4.3
		c1.2,1.2,2.6,2.1,4.2,2.7c1.6,0.6,3.1,1,4.7,1c1.6,0,3.1-0.2,4.3-0.6c1.2-0.4,2.5-1,3.8-1.9v6.1c-1.1,0.6-2.4,1-3.9,1.2
		c-1.5,0.2-3.1,0.3-4.7,0.3c-2.2,0-4.4-0.4-6.6-1.3c-2.2-0.9-4.2-2.1-5.9-3.7c-1.7-1.6-3.2-3.6-4.2-5.9s-1.6-5-1.6-7.9
		c0-2.7,0.5-5.1,1.4-7.4c1-2.3,2.3-4.3,4-5.9c1.7-1.7,3.7-3,6.1-4C753.1,948.3,755.7,947.9,758.5,947.9z"/>
	<path class="st0" d="M786,971.4v13.5h-5.9v-13.5l-8.3-23h6.1l5.3,16.3l5.4-16.3h5.8L786,971.4z"/>
</g>
</svg>
