<?xml version="1.0" encoding="utf-8"?>
<!-- Generator: Adobe Illustrator 22.1.0, SVG Export Plug-In . SVG Version: 6.00 Build 0)  -->
<svg version="1.1" id="Capa_1" xmlns="http://www.w3.org/2000/svg" xmlns:xlink="http://www.w3.org/1999/xlink" x="0px" y="0px"
	 viewBox="0 0 208.3 195.4" style="enable-background:new 0 0 208.3 195.4;" xml:space="preserve">
<style type="text/css">
	.st0{fill:#80C8BD;}
	.st1{fill:#FFFFFF;}
	.st2{fill:none;}
	.st3{enable-background:new    ;}
</style>
<circle class="st0" cx="100.6" cy="67.3" r="67.3"/>
<g>
	<path class="st1" d="M99.9,21.8c1.2,0.7,1.5,1.8,1.5,3.1c0,3.9,0,7.8,0,11.7c0,1-0.2,1.9-1.1,2.4c-1.5,0.9-3.4-0.1-3.5-1.9
		c-0.1-4.4,0-8.8,0-13.3c0-1,0.7-1.6,1.4-2.1C98.7,21.8,99.3,21.8,99.9,21.8z"/>
	<path class="st1" d="M55.7,72.1c2.2,0,4.5,0,6.7,0c1.6,0,2.5,0.8,2.5,2.2c0,1.3-1.1,2.4-2.5,2.4c-4.6,0-9.1,0-13.7,0
		c-1.4,0-2.2-0.9-2.2-2.3s0.8-2.2,2.2-2.3C51,72,53.3,72.1,55.7,72.1L55.7,72.1z"/>
	<path class="st1" d="M72.4,50.4c-0.3-0.2-0.9-0.4-1.4-0.8c-3-3-6-6-9-9c-1.1-1.1-1.1-2.4-0.1-3.3c1-1,2.3-1,3.3,0.1c3,3,6,6,9,9
		c0.7,0.7,1,1.6,0.6,2.5C74.4,49.8,73.8,50.4,72.4,50.4z"/>
	<path class="st1" d="M125.4,50.4c-1.3-0.1-2-0.5-2.4-1.4c-0.4-1-0.2-1.8,0.6-2.6c2.6-2.6,5.3-5.3,7.9-7.9c0.4-0.4,0.8-0.9,1.3-1.3
		c1-0.9,2.2-0.8,3.1,0.1c0.9,0.9,1,2.2,0.1,3.1c-3.1,3.2-6.3,6.3-9.5,9.5C126.2,50.2,125.6,50.3,125.4,50.4z"/>
</g>
<g>
	<g>
		<g>
			<g>
				<path class="st1" d="M130.5,84.9c0.2,0,0.3-0.1,0.4-0.2c0.1-0.1,0.2-0.3,0.1-0.5c-0.1-1.1-0.3-2.2-0.4-3.3l-0.3-2.3
					c0-0.3-0.3-0.6-0.7-0.6h-0.5v-7.7l0.3-0.1l0.9-0.3c0.7-0.3,1.2-1,1.2-1.7c0-0.8-0.5-1.5-1.2-1.7L99.6,55.3
					c-0.4-0.1-0.9-0.1-1.3,0L67.7,66.4c-0.7,0.3-1.2,1-1.2,1.7c0,0.8,0.5,1.5,1.2,1.7L79,74c-0.8,2.5-1.2,5.4-1.1,8.6
					C78.1,101,88.8,112,98.6,112s20.6-11,20.8-29.4c0-3.1-0.3-5.9-1.1-8.4l8.3-3V78h-0.5c-0.3,0-0.7,0.2-0.7,0.6l-0.6,5.6
					c0,0.2,0,0.3,0.1,0.5c0.1,0.1,0.3,0.2,0.4,0.2 M98.6,107.5c-8.6,0-14.6-10.1-15.8-20.2c-1.1-9.3,12.4-9.8,13.2-4
					c0.2,1.8-1.8,3.7-1.6,4.4c1.1,3.6,20.1-11.8,19.9-0.4C114.3,95.4,106.9,107.5,98.6,107.5z"/>
			</g>
		</g>
	</g>
</g>
<path class="st1" d="M155,74.2c0,1.3-1.1,2.4-2.5,2.4c-4.6,0-9.1,0-13.7,0c-1.4,0-2.2-0.9-2.2-2.3s0.8-2.2,2.2-2.3
	c2.3-0.1,4.7,0,7,0l0,0c2.2,0,4.5,0,6.7,0C154.1,72.1,155,72.9,155,74.2"/>
<rect y="144.4" class="st2" width="198" height="50.9"/>
<g class="st3">
	<path class="st0" d="M3.3,155.2c0-0.9,0.7-1.6,1.6-1.6c0.9,0,1.7,0.7,1.7,1.6v17.7c0,0.9-0.8,1.7-1.7,1.7c-0.9,0-1.6-0.7-1.6-1.7
		V155.2z"/>
	<path class="st0" d="M15.6,172.9c0,0.9-0.8,1.7-1.6,1.7c-0.9,0-1.6-0.8-1.6-1.7v-17.4c0,0,0,0,0,0c0-0.5,0.2-1,0.7-1.4
		c0.8-0.5,1.8-0.4,2.3,0.4l9.7,13.4v-12.4c0-0.9,0.7-1.6,1.6-1.6s1.6,0.8,1.6,1.6v17.4c0,0.9-0.8,1.7-1.6,1.7
		c-0.5,0-0.9-0.2-1.2-0.6c-0.1-0.1-0.1-0.1-0.1-0.2l-9.6-13.3V172.9z"/>
	<path class="st0" d="M47.9,156.9h-4.8v16c0,0.9-0.7,1.7-1.6,1.7c-0.9,0-1.6-0.7-1.6-1.7v-16h-4.7c-0.9,0-1.6-0.8-1.6-1.7
		c0-0.9,0.7-1.6,1.6-1.6h12.8c0.9,0,1.6,0.7,1.6,1.6C49.6,156.1,48.8,156.9,47.9,156.9z"/>
	<path class="st0" d="M54.5,172.9v-17.7c0-0.9,0.7-1.6,1.6-1.6h0c0,0,0,0,0.1,0H66c0.9,0,1.6,0.7,1.6,1.6c0,0.9-0.8,1.7-1.6,1.7
		h-8.1v5.5h7c0.9,0,1.6,0.8,1.6,1.7c0,0.9-0.8,1.7-1.6,1.7h-7v5.5H66c0.9,0,1.6,0.8,1.6,1.7c0,0.9-0.8,1.7-1.6,1.7h-9.7
		c-0.1,0-0.1,0-0.1,0l0,0C55.3,174.5,54.5,173.8,54.5,172.9z"/>
	<path class="st0" d="M71.4,163.8c0-6,5-10.8,11.1-10.8c2.6,0,5,0.9,6.8,2.3c0.8,0.6,0.9,1.7,0.3,2.4c-0.6,0.7-1.7,0.9-2.4,0.3
		c-1.3-1-2.9-1.6-4.7-1.6c-2.2,0-4,0.8-5.4,2.2c-1.4,1.3-2.3,3.2-2.3,5.2c0,2,0.8,3.8,2.3,5.2c1.3,1.4,3.2,2.2,5.4,2.2
		c1.5,0,2.9-0.5,4.1-1.1v-4.1h-4.3c-0.9,0-1.7-0.8-1.7-1.7c0-1,0.8-1.7,1.7-1.7h5.9c0,0,0,0,0,0c0,0,0,0,0,0c1,0,1.7,0.7,1.7,1.7
		v6.6c0,0.2-0.1,0.3-0.1,0.5c0,0.1,0,0.1-0.1,0.2v0c-0.1,0.3-0.3,0.5-0.6,0.7c-1.9,1.5-4.3,2.3-6.8,2.3
		C76.4,174.5,71.4,169.8,71.4,163.8z"/>
	<path class="st0" d="M110.6,172.1c0.3,0.9-0.2,1.8-1,2.1c-0.1,0-0.4,0.1-0.7,0.1c0,0,0,0,0,0c-0.3,0-0.8-0.1-1.2-0.3
		c-0.4-0.2-0.7-0.6-1-1c-0.4-0.9-0.6-2-0.6-3.6c0-0.6-0.2-1-0.4-1.3c-0.2-0.3-0.5-0.6-0.9-0.9c-0.6-0.4-1.4-0.7-1.7-0.7h-3.5v6.5
		c0,0.9-0.8,1.7-1.7,1.7c-0.9,0-1.6-0.8-1.6-1.7v-17.7c0-0.9,0.7-1.6,1.6-1.6c0,0,0,0,0,0h5.3c3.6,0,6.4,2.9,6.4,6.4
		c0,2-0.9,3.7-2.3,4.9c0.4,0.3,0.8,0.7,1,1.1c0.6,0.9,1,2,1,3.2c0,0.9,0.1,1.5,0.1,1.8C110.1,171.2,110.5,171.5,110.6,172.1z
		 M106.4,160c0-1.7-1.4-3.1-3.1-3.1h-3.7v6.2h3.7C105.1,163.1,106.4,161.7,106.4,160z"/>
	<path class="st0" d="M126.2,169.6h-7.3l-1.5,3.9c-0.3,0.7-0.9,1-1.6,1c-0.2,0-0.4,0-0.6-0.1c-0.9-0.3-1.3-1.3-1-2.2l6.6-17.7
		c0.3-0.7,0.9-1.1,1.6-1c0.7,0,1.3,0.4,1.6,1l6.6,17.7c0.3,0.9-0.1,1.8-1,2.2c-0.1,0.1-0.4,0.1-0.6,0.1c-0.7,0-1.3-0.4-1.5-1
		L126.2,169.6z M125,166.3l-2.4-6.4l-2.4,6.4H125z"/>
</g>
<g class="st3">
	<path class="st0" d="M154.9,169.6h-7.3l-1.5,3.9c-0.3,0.7-0.9,1-1.6,1c-0.2,0-0.4,0-0.6-0.1c-0.9-0.3-1.3-1.3-1-2.2l6.6-17.7
		c0.3-0.7,0.9-1.1,1.6-1c0.7,0,1.3,0.4,1.6,1l6.6,17.7c0.3,0.9-0.1,1.8-1,2.2c-0.2,0.1-0.4,0.1-0.6,0.1c-0.7,0-1.3-0.4-1.5-1
		L154.9,169.6z M153.7,166.3l-2.4-6.4l-2.4,6.4H153.7z"/>
	<path class="st0" d="M170.6,166.4h-3.7v6.5c0,0.9-0.8,1.7-1.7,1.7c-0.9,0-1.7-0.8-1.7-1.7v-17.7c0-0.9,0.8-1.6,1.7-1.6h0h5.3
		c3.6,0,6.5,2.9,6.5,6.4C177.1,163.5,174.2,166.4,170.6,166.4z M166.9,163.1h3.7c1.7,0,3.1-1.4,3.1-3.1c0-1.7-1.4-3.1-3.1-3.1h-3.7
		V163.1z"/>
	<path class="st0" d="M188.1,166.4h-3.7v6.5c0,0.9-0.8,1.7-1.7,1.7c-0.9,0-1.7-0.8-1.7-1.7v-17.7c0-0.9,0.8-1.6,1.7-1.6h0h5.3
		c3.6,0,6.4,2.9,6.4,6.4C194.6,163.5,191.7,166.4,188.1,166.4z M184.4,163.1h3.7c1.7,0,3.1-1.4,3.1-3.1c0-1.7-1.4-3.1-3.1-3.1h-3.7
		V163.1z"/>
</g>
</svg>
