<!--?xml version="1.0" encoding="utf-8"?-->
<!-- Generator: Adobe Illustrator 19.1.1, SVG Export Plug-In . SVG Version: 6.00 Build 0)  -->
<svg version="1.1" id="_x31_0" xmlns="http://www.w3.org/2000/svg" xmlns:xlink="http://www.w3.org/1999/xlink" x="0px" y="0px" viewBox="0 0 512 512" style="width: 256px; height: 256px; opacity: 1;" xml:space="preserve">
<style type="text/css">
	.st0{fill:#374149;}
</style>
<g>
	<path class="st0" d="M168.704,490.746c1.687-2.532,3.013-5.18,3.963-7.926c0.95-2.75,1.638-5.736,2.062-8.959
		c0.421-3.222,0.684-6.742,0.789-10.544c0.106-3.809,0.162-7.986,0.162-12.531c0-5.394-0.079-10.255-0.241-14.594
		c-0.154-4.328-0.612-8.321-1.345-11.968c-0.747-3.651-1.878-7.002-3.414-10.071c-1.533-3.066-3.722-6.026-6.581-8.884
		c-3.802-3.802-8.137-6.739-13.002-8.802c-4.864-2.062-10.574-3.087-17.129-3.087c-6.551,0-12.261,1.026-17.126,3.087
		c-4.865,2.062-9.248,5-13.162,8.802c-2.851,2.858-5.049,5.818-6.585,8.884c-1.533,3.069-2.638,6.42-3.329,10.071
		c-0.691,3.647-1.111,7.64-1.266,11.968c-0.162,4.338-0.241,9.199-0.241,14.594c0,5.39,0.079,10.255,0.241,14.594
		c0.154,4.334,0.574,8.32,1.266,11.964c0.691,3.655,1.796,7.014,3.329,10.074c1.536,3.07,3.734,6.026,6.585,8.884
		c3.914,3.802,8.298,6.735,13.162,8.802c4.865,2.062,10.574,3.088,17.126,3.088c4.549,0,8.696-0.526,12.449-1.582
		c3.749-1.056,7.163-2.543,10.232-4.444L166.796,512l11.469-11.472h0.003l0,0l0.106-0.106L168.704,490.746z M143.116,465.169
		L143.116,465.169l-0.106-0.109l-11.574,11.735l8.226,8.098l1.57,1.589c-2.107,1.36-4.53,2.047-7.265,2.047
		c-3.069,0-5.785-0.582-8.162-1.742c-2.382-1.165-4.414-2.641-6.112-4.444c-1.056-1.161-1.927-2.457-2.61-3.884
		c-0.691-1.431-1.247-3.276-1.668-5.549c-0.425-2.272-0.714-5.18-0.875-8.722c-0.154-3.542-0.233-8.012-0.233-13.402
		c0-5.394,0.078-9.857,0.233-13.403c0.162-3.542,0.45-6.469,0.875-8.802c0.421-2.321,0.977-4.199,1.668-5.63
		c0.683-1.42,1.554-2.716,2.61-3.884c1.698-1.796,3.73-3.246,6.112-4.358c2.378-1.112,5.094-1.668,8.162-1.668
		c3.062,0,5.789,0.556,8.166,1.668c2.382,1.112,4.365,2.562,5.95,4.358c1.055,1.168,1.926,2.464,2.618,3.884
		c0.684,1.431,1.24,3.31,1.661,5.63c0.421,2.333,0.74,5.259,0.95,8.802c0.21,3.546,0.319,8.009,0.319,13.403
		c0,5.71-0.135,10.334-0.398,13.876c-0.21,2.885-0.669,5.3-1.27,7.446c-0.158,0.477-0.259,1.014-0.447,1.457l-8.369-8.362
		L143.116,465.169z" style="fill: rgb(223, 86, 86);"></path>
	<path class="st0" d="M279.391,394.484v-0.158h-21.885v73.43c0,6.555-1.774,11.653-5.316,15.296
		c-3.538,3.655-8.328,5.477-14.353,5.477c-6.026,0-10.785-1.822-14.267-5.477c-3.494-3.643-5.24-8.741-5.24-15.296v-72.83
		l0.004-0.443h-0.004v-0.158h-22.039v74.219c0,6.026,1.082,11.472,3.254,16.341c2.16,4.861,5.123,9.008,8.876,12.445
		c3.753,3.434,8.144,6.104,13.162,8.009c5.019,1.901,10.439,2.851,16.254,2.851s11.235-0.95,16.254-2.851
		c5.026-1.905,9.414-4.575,13.166-8.009c3.749-3.437,6.713-7.584,8.88-12.445c2.171-4.869,3.254-10.315,3.254-16.341v-73.61V394.484
		L279.391,394.484z" style="fill: rgb(223, 86, 86);"></path>
	<polygon class="st0" points="303.973,394.326 303.973,506.741 303.973,507.086 303.973,507.086 303.973,507.241 326.016,507.241 
		326.016,394.326 	" style="fill: rgb(223, 86, 86);"></polygon>
	<polygon class="st0" points="347.585,394.326 347.585,413.785 347.585,413.845 347.585,413.845 347.585,413.995 377.704,413.995 
		393.684,414.078 345.519,489.48 345.519,507.241 419.738,507.241 419.738,487.579 388.369,487.579 371.423,487.497 
		419.738,411.771 419.738,394.326 	" style="fill: rgb(223, 86, 86);"></polygon>
	<path class="st0" d="M231.043,252.694c8.136-0.541,16.475-0.811,24.92-0.811c8.455,0,16.798,0.27,24.995,0.811
		c2.701,0.18,5.198-1.386,6.074-3.952c9.526-27.902,15.503-65.459,15.503-97.517c0-59.79-20.822-77.87-46.572-77.87
		c-25.675,0-46.494,18.08-46.494,77.87c0,32.058,5.973,69.614,15.499,97.517C225.843,251.305,228.338,252.871,231.043,252.694z" style="fill: rgb(223, 86, 86);"></path>
	<path class="st0" d="M115.465,283.37c7.467-4.377,15.739-8.336,24.694-11.795c3.873-1.495,5.195-6.229,2.596-9.462
		c-11.788-14.677-22.719-30.818-31.362-46.388c-17.723-32.204-20.912-54.386-15.492-69.595c0.049-0.132,0.102-0.259,0.147-0.387
		c0.402-1.086,0.845-2.134,1.333-3.148c0.158-0.326,0.334-0.646,0.504-0.966c0.413-0.792,0.838-1.578,1.303-2.329
		c0.485-0.774,1.006-1.525,1.555-2.262c0.191-0.262,0.368-0.541,0.563-0.796c0.789-0.999,1.642-1.961,2.547-2.893
		c0.075-0.063,0.12-0.146,0.195-0.206l-0.011-0.004c0.007-0.007,0.015-0.018,0.022-0.026c-0.018,0-0.038-0.004-0.053-0.011
		c0.03-0.034,0.057-0.072,0.094-0.106c-11.093-3.647-21.652-1.746-31.302,3.647c-22.561,12.378-32.136,38.286-3.343,90.631
		c10.236,18.628,24.011,38.109,38.398,54.919C109.759,284.418,112.94,284.853,115.465,283.37z" style="fill: rgb(223, 86, 86);"></path>
	<path class="st0" d="M439.2,136.643c-9.27-5.187-19.39-7.084-30.01-3.997c-0.357,0.09-0.725,0.143-1.086,0.233l-0.094,0.008
		l0.007,0.007c-0.007,0.008-0.019,0.008-0.03,0.011c0.023,0.015,0.034,0.034,0.049,0.053c-0.049,0.011-0.09,0.022-0.138,0.038
		c14.131,14.511,16.411,39.657-7.291,82.728c-8.647,15.582-19.586,31.73-31.378,46.41c-2.596,3.234-1.289,7.956,2.573,9.451
		c8.974,3.486,17.258,7.411,24.736,11.791c2.525,1.476,5.698,1.041,7.603-1.183c14.391-16.806,28.166-36.287,38.402-54.919
		C471.337,174.929,461.762,149.021,439.2,136.643z" style="fill: rgb(223, 86, 86);"></path>
	<path class="st0" d="M164.002,259.268c1.374,2.242,4.011,3.246,6.558,2.607c8.726-2.194,17.895-4.068,27.452-5.56
		c3.842-0.601,6.13-4.526,4.714-8.151c-7.708-19.721-13.869-41.707-17.186-61.766c-1.318-8.017-2.093-15.282-2.393-21.874
		c-0.008-0.158-0.019-0.323-0.026-0.481c-0.154-3.569-0.132-6.886-0.011-10.06c0.038-0.864,0.049-1.754,0.102-2.592
		c0.112-1.746,0.259-3.441,0.45-5.06c0.241-1.983,0.541-3.895,0.902-5.729c0.255-1.314,0.545-2.58,0.864-3.801
		c0.481-1.86,1.037-3.637,1.66-5.323c0.365-0.984,0.751-1.942,1.161-2.862c0.759-1.686,1.597-3.275,2.514-4.77
		c0.428-0.702,0.867-1.402,1.33-2.055c1.097-1.544,2.291-2.967,3.583-4.271c0.394-0.402,0.782-0.818,1.191-1.198
		c1.694-1.544,3.516-2.946,5.518-4.106c0.057-0.034,0.113-0.078,0.17-0.112c-14.128-23.098-31.528-27.73-48.92-23.098
		c-24.845,6.615-40.34,29.405-24.995,87.216C136.072,204.297,149.404,235.389,164.002,259.268z" style="fill: rgb(223, 86, 86);"></path>
	<path class="st0" d="M313.913,256.315c9.526,1.473,18.714,3.321,27.444,5.538c2.55,0.654,5.195-0.346,6.566-2.592
		c14.605-23.883,27.933-54.968,35.363-83.04c15.348-57.811-0.15-80.601-24.992-87.216c-15.81-4.207-31.61-0.718-44.968,17.272
		c-0.007,0.015-0.015,0.03-0.026,0.041c-1.247,1.679-2.475,3.453-3.678,5.394c-0.063,0.102-0.127,0.181-0.191,0.282
		c0.004,0,0.004,0,0.004,0c-0.023,0.038-0.046,0.072-0.064,0.11c0.559,0.33,1.089,0.71,1.634,1.07
		c1.067,0.714,2.089,1.472,3.058,2.302c0.898,0.762,1.762,1.578,2.592,2.453c1.067,1.131,2.089,2.318,3.021,3.618
		c0.552,0.774,1.07,1.604,1.581,2.446c0.864,1.423,1.657,2.922,2.374,4.519c0.428,0.958,0.83,1.957,1.21,2.986
		c0.623,1.678,1.176,3.444,1.657,5.293c0.315,1.213,0.597,2.475,0.856,3.778c0.365,1.852,0.669,3.783,0.91,5.785
		c0.191,1.604,0.334,3.272,0.443,4.993c0.063,0.931,0.075,1.915,0.112,2.877c0.113,3.099,0.135,6.33-0.014,9.805
		c-0.008,0.176-0.022,0.361-0.026,0.534c-0.308,6.581-1.078,13.834-2.393,21.836c-3.317,20.055-9.478,42.042-17.182,61.759
		C307.783,251.786,310.066,255.718,313.913,256.315z" style="fill: rgb(223, 86, 86);"></path>
	<polygon class="st0" points="285.822,30.164 285.886,30.1 285.886,30.1 285.995,29.991 256,0 226.005,29.991 256,59.982 	" style="fill: rgb(223, 86, 86);"></polygon>
	<path class="st0" d="M125.584,303.834c-4.654,2.779-6.149,8.798-3.474,13.515l17.746,31.28c1.345,2.37,3.58,3.918,6.07,4.617
		c0.015,0,0.022,0.003,0.038,0.003c1.634,0.455,3.35,0.605,5.071,0.139c32.414-8.838,76.007-13.226,104.928-13.226
		s72.45,4.388,104.92,13.226c1.721,0.47,3.449,0.316,5.086-0.135c0.008-0.004,0.015-0.007,0.022-0.007
		c2.498-0.695,4.741-2.246,6.09-4.613l17.786-31.273c2.686-4.718,1.191-10.75-3.478-13.526
		c-26.81-15.954-72.236-29.162-130.426-29.162C197.768,274.673,152.342,287.881,125.584,303.834z" style="fill: rgb(223, 86, 86);"></path>
</g>
</svg>
